<svg fill="#1565C0" xmlns="http://www.w3.org/2000/svg" viewBox="0 9.8100004196167 286.29998779296875 58.1099967956543" data-asc="0.9462890625" width="286.29998779296875" height="58.1099967956543"><defs/><g><g transform="translate(0, 0)"><path d="M18.46 32.23L26.25 32.23L26.25 15.16Q26.25 12.50 27.01 11.16Q27.78 9.81 28.86 9.81Q29.39 9.81 29.87 10.13Q30.35 10.45 30.71 10.88Q31.08 11.30 31.29 11.76Q31.49 12.21 31.49 12.48Q31.49 12.74 31.29 12.78Q31.08 12.82 30.82 13.05Q30.57 13.28 30.36 13.96Q30.15 14.65 30.15 16.21L30.15 47.56Q30.15 48.19 29.72 48.45Q29.30 48.71 28.74 48.71Q28.30 48.71 27.86 48.58Q27.42 48.46 27.06 48.27Q26.71 48.07 26.48 47.81Q26.25 47.56 26.25 47.27L26.25 35.72L18.46 35.72L18.46 47.56Q18.46 48.19 18.03 48.45Q17.60 48.71 17.04 48.71Q16.60 48.71 16.16 48.58Q15.72 48.46 15.37 48.27Q15.01 48.07 14.78 47.81Q14.55 47.56 14.55 47.27L14.55 35.72L10.99 35.72Q10.60 35.72 10.27 35.47Q9.94 35.23 9.70 34.85Q9.47 34.47 9.34 34.03Q9.20 33.59 9.20 33.20Q9.20 32.79 9.39 32.51Q9.57 32.23 9.94 32.23L14.55 32.23L14.55 16.06Q12.23 16.06 10.29 16.83Q8.35 17.60 6.95 19.03Q5.54 20.46 4.75 22.49Q3.96 24.51 3.96 27.03Q3.96 28.61 4.27 29.88Q4.59 31.15 5.03 32.04Q5.47 32.93 5.91 33.42Q6.35 33.91 6.59 33.91Q6.81 33.91 6.91 33.79Q7.01 33.67 7.20 33.67Q7.40 33.67 7.45 33.94Q7.50 34.20 7.50 34.47Q7.50 35.25 7.18 35.95Q6.86 36.65 6.38 37.07Q5.91 37.50 5.32 37.60Q4.74 37.70 4.20 37.30Q3.54 36.84 2.80 35.97Q2.05 35.11 1.43 33.84Q0.81 32.57 0.40 30.90Q0 29.22 0 27.17Q0 24.51 0.70 22.38Q1.39 20.24 2.58 18.59Q3.76 16.94 5.37 15.76Q6.98 14.58 8.80 13.81Q10.62 13.04 12.59 12.67Q14.55 12.30 16.46 12.30Q16.85 12.30 17.21 12.46Q17.58 12.62 17.85 12.90Q18.12 13.18 18.29 13.57Q18.46 13.96 18.46 14.40L18.46 32.23ZM48.90 45.41Q49.66 45.41 50.21 44.87Q50.76 44.34 51.16 43.53Q51.56 42.72 51.82 41.78Q52.08 40.84 52.25 40.01Q52.42 39.23 52.75 38.88Q53.08 38.53 53.47 38.53Q53.76 38.53 54.06 38.71Q54.37 38.89 54.63 39.18Q54.88 39.48 55.04 39.84Q55.20 40.21 55.20 40.58Q55.20 40.63 55.20 40.70Q55.20 40.77 55.15 40.92Q54.83 42.16 54.28 43.53Q53.74 44.90 52.88 46.04Q52.03 47.19 50.82 47.95Q49.61 48.71 48.00 48.71Q46.68 48.71 45.70 48.14Q44.73 47.58 44.17 46.66Q43.41 47.51 42.35 48.11Q41.28 48.71 39.87 48.71Q38.40 48.71 37.29 48.12Q36.18 47.53 35.42 46.52Q34.67 45.51 34.29 44.13Q33.91 42.75 33.91 41.16Q33.91 38.04 34.91 35.55Q35.91 33.06 37.57 31.31Q39.23 29.57 41.37 28.64Q43.51 27.71 45.80 27.71Q46.83 27.71 47.46 28.27Q48.10 28.83 48.10 29.81Q48.10 30.44 47.96 30.70Q47.83 30.96 47.46 30.96Q47.12 30.96 46.75 30.91Q46.39 30.86 46.00 30.86Q44.58 30.86 43.12 31.48Q41.65 32.10 40.47 33.39Q39.28 34.67 38.53 36.63Q37.77 38.60 37.77 41.31Q37.77 43.29 38.53 44.35Q39.28 45.41 40.60 45.41Q41.63 45.41 42.31 44.64Q42.99 43.87 43.41 42.82L43.41 35.11Q43.41 34.74 43.37 34.50Q43.33 34.25 43.30 34.08Q43.26 33.91 43.24 33.78Q43.21 33.64 43.21 33.52Q43.21 33.13 43.59 32.90Q43.97 32.67 44.51 32.67Q45.75 32.67 46.48 33.31Q47.22 33.96 47.22 34.86L47.22 43.12Q47.22 43.53 47.31 43.93Q47.41 44.34 47.61 44.67Q47.80 45.00 48.13 45.20Q48.46 45.41 48.90 45.41ZM58.67 49.22Q57.74 49.22 57.15 49.01Q56.57 48.80 56.25 48.46L56.25 64.72Q56.25 65.41 55.98 65.83Q55.71 66.26 55.31 66.50Q54.91 66.75 54.44 66.83Q53.98 66.92 53.61 66.92Q52.86 66.92 52.66 66.53Q52.47 66.14 52.47 65.58L52.47 30.66Q52.47 30.13 52.38 29.81Q52.29 29.49 52.21 29.31Q52.12 29.13 52.04 29.02Q51.95 28.91 51.95 28.76Q51.95 28.64 52.10 28.54Q52.25 28.44 52.49 28.37Q52.73 28.30 53.02 28.26Q53.30 28.22 53.56 28.22Q54.76 28.22 55.48 28.87Q56.20 29.52 56.25 30.37Q57.03 29.22 58.13 28.47Q59.23 27.71 60.82 27.71Q62.28 27.71 63.37 28.39Q64.45 29.08 65.17 30.26Q65.89 31.45 66.25 33.06Q66.60 34.67 66.60 36.52Q66.60 38.62 66.24 40.54Q65.87 42.46 65.31 43.82Q66.55 43.75 67.36 43.48Q68.16 43.21 68.71 42.74Q69.26 42.26 69.67 41.58Q70.07 40.89 70.51 40.01Q70.85 39.31 71.08 38.99Q71.31 38.67 71.66 38.67Q71.97 38.67 72.30 38.87Q72.63 39.06 72.89 39.36Q73.14 39.65 73.30 39.98Q73.46 40.31 73.46 40.58Q73.46 41.43 72.88 42.53Q72.29 43.63 71.08 44.60Q69.87 45.58 68.03 46.25Q66.19 46.92 63.70 46.92Q62.67 48.02 61.33 48.62Q59.99 49.22 58.67 49.22M59.55 31.05Q59.01 31.05 58.51 31.37Q58.01 31.69 57.57 32.24Q57.13 32.79 56.80 33.57Q56.47 34.35 56.25 35.25L56.25 46.07Q56.79 45.29 58.01 44.87Q59.23 44.46 60.96 44.31Q61.40 43.65 61.73 42.74Q62.06 41.82 62.28 40.84Q62.50 39.87 62.61 38.94Q62.72 38.01 62.72 37.30Q62.72 35.60 62.46 34.40Q62.21 33.20 61.77 32.46Q61.33 31.71 60.75 31.38Q60.18 31.05 59.55 31.05ZM76.71 49.22Q75.78 49.22 75.20 49.01Q74.61 48.80 74.29 48.46L74.29 64.72Q74.29 65.41 74.02 65.83Q73.75 66.26 73.35 66.50Q72.95 66.75 72.49 66.83Q72.02 66.92 71.66 66.92Q70.90 66.92 70.70 66.53Q70.51 66.14 70.51 65.58L70.51 30.66Q70.51 30.13 70.42 29.81Q70.34 29.49 70.25 29.31Q70.17 29.13 70.08 29.02Q70.00 28.91 70.00 28.76Q70.00 28.64 70.14 28.54Q70.29 28.44 70.53 28.37Q70.78 28.30 71.06 28.26Q71.34 28.22 71.61 28.22Q72.80 28.22 73.52 28.87Q74.24 29.52 74.29 30.37Q75.07 29.22 76.17 28.47Q77.27 27.71 78.86 27.71Q80.32 27.71 81.41 28.39Q82.50 29.08 83.22 30.26Q83.94 31.45 84.29 33.06Q84.64 34.67 84.64 36.52Q84.64 38.62 84.28 40.54Q83.91 42.46 83.35 43.82Q84.59 43.75 85.40 43.48Q86.21 43.21 86.76 42.74Q87.30 42.26 87.71 41.58Q88.11 40.89 88.55 40.01Q88.89 39.31 89.12 38.99Q89.36 38.67 89.70 38.67Q90.01 38.67 90.34 38.87Q90.67 39.06 90.93 39.36Q91.19 39.65 91.35 39.98Q91.50 40.31 91.50 40.58Q91.50 41.43 90.92 42.53Q90.33 43.63 89.12 44.60Q87.92 45.58 86.07 46.25Q84.23 46.92 81.74 46.92Q80.71 48.02 79.37 48.62Q78.03 49.22 76.71 49.22M77.59 31.05Q77.05 31.05 76.55 31.37Q76.05 31.69 75.61 32.24Q75.17 32.79 74.84 33.57Q74.51 34.35 74.29 35.25L74.29 46.07Q74.83 45.29 76.05 44.87Q77.27 44.46 79.00 44.31Q79.44 43.65 79.77 42.74Q80.10 41.82 80.32 40.84Q80.54 39.87 80.65 38.94Q80.76 38.01 80.76 37.30Q80.76 35.60 80.51 34.40Q80.25 33.20 79.81 32.46Q79.37 31.71 78.80 31.38Q78.22 31.05 77.59 31.05ZM106.30 40.01Q106.52 39.23 106.81 38.88Q107.10 38.53 107.50 38.53Q107.79 38.53 108.11 38.71Q108.42 38.89 108.68 39.18Q108.94 39.48 109.09 39.84Q109.25 40.21 109.25 40.58Q109.25 40.63 109.25 40.77Q109.25 40.92 109.20 41.06Q108.57 43.24 107.73 44.91Q106.88 46.58 105.92 47.90Q104.96 49.22 103.93 50.26Q102.91 51.29 101.88 52.17L101.88 60.82Q101.88 62.79 101.43 64.15Q100.98 65.50 100.24 66.35Q99.51 67.19 98.58 67.55Q97.66 67.92 96.70 67.92Q95.65 67.92 94.78 67.47Q93.90 67.02 93.25 66.24Q92.60 65.45 92.25 64.40Q91.89 63.35 91.89 62.16Q91.89 60.25 92.40 58.79Q92.90 57.32 93.75 56.10Q94.60 54.88 95.73 53.82Q96.85 52.76 98.10 51.66L98.10 45.31Q97.19 46.83 96.00 47.79Q94.80 48.75 93.19 48.75Q91.94 48.75 90.95 48.24Q89.97 47.73 89.28 46.79Q88.60 45.85 88.24 44.52Q87.89 43.19 87.89 41.55Q87.89 39.58 88.17 37.57Q88.45 35.57 88.79 33.96Q89.18 32.08 89.70 30.32Q89.82 30.00 89.88 29.68Q89.94 29.35 90.16 29.08Q90.38 28.81 90.86 28.64Q91.33 28.47 92.33 28.47Q93.26 28.47 93.53 28.80Q93.80 29.13 93.74 29.57Q93.68 30.00 93.44 30.47Q93.21 30.93 93.14 31.23Q92.80 32.62 92.53 33.76Q92.26 34.91 92.08 36.07Q91.89 37.23 91.80 38.49Q91.70 39.75 91.70 41.31Q91.70 43.36 92.30 44.41Q92.90 45.46 93.99 45.46Q94.75 45.46 95.40 44.90Q96.04 44.34 96.57 43.40Q97.09 42.46 97.49 41.25Q97.88 40.04 98.10 38.72L98.10 30.66Q98.10 29.96 98.00 29.64Q97.90 29.32 97.90 29.05Q97.90 28.69 98.28 28.45Q98.66 28.22 99.19 28.22Q100.44 28.22 101.16 28.87Q101.88 29.52 101.88 30.42L101.88 47.97Q103.25 46.46 104.39 44.53Q105.54 42.60 106.30 40.01M96.70 64.77Q97.29 64.77 97.58 64.28Q97.88 63.79 97.99 63.15Q98.10 62.50 98.10 61.84Q98.10 61.18 98.10 60.82L98.10 55.47Q96.88 56.69 96.13 58.23Q95.39 59.77 95.39 62.01Q95.39 63.18 95.74 63.98Q96.09 64.77 96.70 64.77ZM125.85 49.12Q124.27 49.12 123.22 48.77Q122.17 48.41 121.56 47.97Q120.95 47.53 120.70 47.13Q120.46 46.73 120.46 46.61Q120.46 46.17 120.65 45.67Q120.85 45.17 121.14 44.74Q121.44 44.31 121.78 44.02Q122.12 43.73 122.39 43.73Q122.73 43.73 122.95 44.17Q123.00 44.21 123.19 44.41Q123.39 44.60 123.74 44.81Q124.10 45.02 124.62 45.19Q125.15 45.36 125.85 45.36Q127.39 45.36 128.37 44.42Q129.35 43.48 129.35 41.87Q129.35 40.75 128.82 39.87Q128.30 38.99 127.44 38.23Q126.59 37.48 125.49 36.76Q124.39 36.04 123.24 35.25Q122.09 34.47 121.00 33.57Q119.90 32.67 119.04 31.49Q118.19 30.32 117.66 28.85Q117.14 27.37 117.14 25.46Q117.14 23.83 117.70 22.17Q118.26 20.51 119.25 19.01Q120.24 17.50 121.58 16.20Q122.92 14.89 124.49 13.93Q126.05 12.96 127.75 12.41Q129.44 11.87 131.15 11.87Q132.62 11.87 133.79 12.33Q134.96 12.79 135.77 13.64Q136.57 14.48 137.01 15.66Q137.45 16.85 137.45 18.31Q137.45 19.70 136.96 21.04Q136.47 22.39 135.67 23.58Q134.86 24.78 133.85 25.79Q132.84 26.81 131.77 27.55Q130.71 28.30 129.71 28.71Q128.71 29.13 127.95 29.13Q127.29 29.13 126.77 28.82Q126.25 28.52 125.89 28.06Q125.54 27.61 125.34 27.11Q125.15 26.61 125.15 26.22Q125.15 25.90 125.23 25.81Q125.32 25.71 125.48 25.72Q125.63 25.73 125.88 25.79Q126.12 25.85 126.44 25.85Q127.47 25.85 128.71 25.15Q129.96 24.44 131.05 23.34Q132.15 22.24 132.90 20.92Q133.64 19.60 133.64 18.36Q133.64 17.09 133.02 16.36Q132.40 15.63 130.91 15.63Q129.98 15.63 128.89 15.98Q127.81 16.33 126.71 16.97Q125.61 17.60 124.58 18.51Q123.56 19.41 122.78 20.50Q122.00 21.58 121.52 22.84Q121.04 24.10 121.04 25.46Q121.04 26.90 121.57 28.04Q122.09 29.17 122.96 30.10Q123.83 31.03 124.93 31.81Q126.03 32.59 127.17 33.36Q128.32 34.13 129.42 34.95Q130.52 35.77 131.38 36.76Q132.25 37.74 132.78 38.95Q133.30 40.16 133.30 41.72Q133.30 43.24 132.73 44.59Q132.15 45.95 131.15 46.95Q130.15 47.95 128.78 48.54Q127.42 49.12 125.85 49.12ZM145.70 48.71Q144.04 48.71 142.48 48.10Q140.92 47.49 139.71 46.29Q138.50 45.09 137.78 43.33Q137.06 41.58 137.06 39.26Q137.06 37.11 137.67 35.03Q138.28 32.96 139.36 31.34Q140.43 29.71 141.93 28.71Q143.43 27.71 145.21 27.71Q146.51 27.71 147.41 28.23Q148.32 28.76 148.88 29.50Q149.44 30.25 149.69 31.10Q149.95 31.96 149.95 32.62Q149.95 33.11 149.69 33.50Q149.44 33.89 149.07 34.16Q148.71 34.42 148.27 34.56Q147.83 34.69 147.49 34.67Q147.14 34.64 146.94 34.42Q146.73 34.20 146.80 33.76Q146.70 33.45 146.62 32.98Q146.53 32.52 146.33 32.09Q146.12 31.67 145.75 31.36Q145.39 31.05 144.75 31.05Q144.07 31.05 143.42 31.70Q142.77 32.35 142.27 33.47Q141.77 34.59 141.47 36.08Q141.16 37.57 141.16 39.26Q141.16 40.75 141.54 41.89Q141.92 43.04 142.60 43.82Q143.29 44.60 144.23 45.01Q145.17 45.41 146.26 45.41Q147.73 45.41 148.82 44.86Q149.90 44.31 150.66 43.41Q151.42 42.50 151.88 41.38Q152.34 40.26 152.56 39.11Q152.73 38.28 153.26 38.00Q153.78 37.72 154.33 37.87Q154.88 38.01 155.29 38.49Q155.69 38.96 155.62 39.62Q155.52 40.38 155.26 41.36Q155.00 42.33 154.52 43.33Q154.03 44.34 153.28 45.30Q152.54 46.26 151.46 47.02Q150.39 47.78 148.96 48.24Q147.53 48.71 145.70 48.71ZM152.56 16.50Q152.56 15.97 152.48 15.65Q152.39 15.33 152.31 15.15Q152.22 14.97 152.14 14.86Q152.05 14.75 152.05 14.62Q152.05 14.48 152.20 14.38Q152.34 14.28 152.59 14.21Q152.83 14.14 153.11 14.10Q153.39 14.06 153.66 14.06Q154.91 14.06 155.63 14.71Q156.35 15.36 156.35 16.26L156.35 32.67Q156.86 31.62 157.46 30.71Q158.06 29.81 158.75 29.14Q159.45 28.47 160.24 28.09Q161.04 27.71 161.96 27.71Q163.21 27.71 164.01 28.17Q164.82 28.64 165.28 29.37Q165.75 30.10 165.93 31.01Q166.11 31.91 166.11 32.76L166.11 43.12Q166.11 43.29 166.14 43.66Q166.16 44.04 166.28 44.43Q166.41 44.82 166.66 45.12Q166.92 45.41 167.41 45.41Q168.16 45.41 168.71 44.87Q169.26 44.34 169.67 43.53Q170.07 42.72 170.32 41.78Q170.58 40.84 170.75 40.01Q170.90 39.26 171.20 38.92Q171.51 38.57 171.86 38.54Q172.22 38.50 172.58 38.72Q172.95 38.94 173.22 39.29Q173.49 39.65 173.62 40.09Q173.75 40.53 173.66 40.92Q173.32 42.16 172.77 43.53Q172.22 44.90 171.36 46.04Q170.51 47.19 169.31 47.95Q168.12 48.71 166.50 48.71Q165.50 48.71 164.73 48.33Q163.96 47.95 163.42 47.31Q162.87 46.68 162.59 45.83Q162.30 44.97 162.30 44.02L162.30 33.86Q162.30 33.28 162.28 32.76Q162.26 32.25 162.15 31.86Q162.04 31.47 161.83 31.24Q161.62 31.01 161.25 31.01Q160.72 31.01 159.94 31.74Q159.16 32.47 158.40 33.64Q157.64 34.81 157.07 36.29Q156.49 37.77 156.35 39.26L156.35 46.56Q156.35 46.92 156.34 47.30Q156.32 47.68 156.19 47.99Q156.05 48.29 155.77 48.50Q155.49 48.71 154.96 48.71Q154.59 48.71 154.16 48.62Q153.74 48.54 153.38 48.30Q153.03 48.07 152.80 47.64Q152.56 47.22 152.56 46.51L152.56 16.50ZM182.47 32.76Q182.47 34.16 181.99 35.62Q181.52 37.08 180.58 38.39Q179.64 39.70 178.26 40.73Q176.88 41.77 175.07 42.31Q175.32 42.94 175.72 43.52Q176.12 44.09 176.68 44.51Q177.25 44.92 177.99 45.17Q178.74 45.41 179.71 45.41Q181.18 45.41 182.23 44.86Q183.28 44.31 184.00 43.41Q184.72 42.50 185.16 41.38Q185.60 40.26 185.82 39.11Q185.99 38.28 186.51 38.00Q187.04 37.72 187.59 37.87Q188.13 38.01 188.54 38.49Q188.94 38.96 188.87 39.62Q188.77 40.38 188.54 41.36Q188.31 42.33 187.84 43.33Q187.38 44.34 186.66 45.30Q185.94 46.26 184.89 47.02Q183.84 47.78 182.42 48.24Q181.01 48.71 179.17 48.71Q177.47 48.71 175.87 48.03Q174.27 47.36 173.03 46.11Q171.80 44.85 171.06 43.01Q170.31 41.16 170.31 38.82Q170.31 36.45 170.97 34.41Q171.63 32.37 172.71 30.88Q173.78 29.39 175.15 28.55Q176.51 27.71 177.95 27.71Q179.00 27.71 179.85 28.08Q180.69 28.44 181.27 29.11Q181.86 29.79 182.17 30.71Q182.47 31.64 182.47 32.76M174.41 38.67Q174.41 38.89 174.44 39.11Q174.46 39.33 174.46 39.58Q175.39 39.14 176.15 38.45Q176.90 37.77 177.44 36.89Q177.98 36.01 178.27 34.97Q178.56 33.94 178.56 32.81Q178.56 31.98 178.28 31.52Q178.00 31.05 177.51 31.05Q176.90 31.05 176.43 31.47Q175.95 31.88 175.60 32.56Q175.24 33.23 175.01 34.07Q174.78 34.91 174.63 35.77Q174.49 36.62 174.44 37.39Q174.39 38.16 174.41 38.67ZM191.41 48.71Q189.94 48.71 188.75 48.19Q187.55 47.68 186.71 46.67Q185.86 45.65 185.41 44.15Q184.96 42.65 184.96 40.67Q184.96 37.79 185.77 35.53Q186.57 33.28 187.96 31.65Q189.36 30.03 191.19 29.06Q193.02 28.10 195.07 27.81L195.07 16.50Q195.07 15.97 194.98 15.65Q194.90 15.33 194.81 15.15Q194.73 14.97 194.64 14.86Q194.56 14.75 194.56 14.62Q194.56 14.48 194.70 14.38Q194.85 14.28 195.09 14.21Q195.34 14.14 195.62 14.10Q195.90 14.06 196.17 14.06Q197.41 14.06 198.13 14.71Q198.85 15.36 198.85 16.26L198.85 43.12Q198.85 43.53 198.95 43.93Q199.05 44.34 199.26 44.67Q199.46 45.00 199.79 45.20Q200.12 45.41 200.56 45.41Q201.32 45.41 201.87 44.87Q202.42 44.34 202.82 43.53Q203.22 42.72 203.48 41.78Q203.74 40.84 203.91 40.01Q204.05 39.23 204.39 38.88Q204.74 38.53 205.10 38.53Q205.40 38.53 205.71 38.71Q206.03 38.89 206.29 39.18Q206.54 39.48 206.70 39.84Q206.86 40.21 206.86 40.58Q206.86 40.63 206.86 40.70Q206.86 40.77 206.81 40.92Q206.49 42.16 205.94 43.53Q205.40 44.90 204.53 46.04Q203.66 47.19 202.47 47.95Q201.27 48.71 199.66 48.71Q198.36 48.71 197.39 48.17Q196.41 47.63 195.85 46.75Q195.02 47.61 193.93 48.16Q192.85 48.71 191.41 48.71M192.16 45.41Q193.14 45.41 193.86 44.85Q194.58 44.29 195.07 43.46L195.07 31.10Q193.85 31.32 192.71 31.92Q191.58 32.52 190.71 33.59Q189.84 34.67 189.33 36.32Q188.82 37.96 188.82 40.31Q188.82 41.67 189.10 42.64Q189.38 43.60 189.83 44.21Q190.28 44.82 190.89 45.12Q191.50 45.41 192.16 45.41ZM217.87 48.71Q217.02 48.71 216.32 48.44Q215.63 48.17 215.10 47.69Q214.58 47.22 214.23 46.57Q213.89 45.92 213.77 45.17Q212.87 46.75 211.65 47.75Q210.42 48.75 208.76 48.75Q207.52 48.75 206.53 48.24Q205.54 47.73 204.86 46.79Q204.17 45.85 203.82 44.52Q203.47 43.19 203.47 41.55Q203.47 39.58 203.75 37.57Q204.03 35.57 204.37 33.96Q204.76 32.08 205.27 30.32Q205.40 30.00 205.46 29.68Q205.52 29.35 205.74 29.08Q205.96 28.81 206.43 28.64Q206.91 28.47 207.91 28.47Q208.84 28.47 209.11 28.80Q209.38 29.13 209.31 29.57Q209.25 30.00 209.02 30.47Q208.79 30.93 208.72 31.23Q208.37 32.62 208.11 33.76Q207.84 34.91 207.65 36.07Q207.47 37.23 207.37 38.49Q207.28 39.75 207.28 41.31Q207.28 43.36 207.87 44.41Q208.47 45.46 209.57 45.46Q210.33 45.46 210.97 44.90Q211.62 44.34 212.15 43.40Q212.67 42.46 213.06 41.25Q213.45 40.04 213.67 38.72L213.67 30.66Q213.67 30.13 213.59 29.81Q213.50 29.49 213.42 29.31Q213.33 29.13 213.24 29.02Q213.16 28.91 213.16 28.76Q213.16 28.64 213.31 28.54Q213.45 28.44 213.70 28.37Q213.94 28.30 214.22 28.26Q214.50 28.22 214.77 28.22Q216.02 28.22 216.74 28.87Q217.46 29.52 217.46 30.42L217.46 43.12Q217.46 43.29 217.48 43.66Q217.50 44.04 217.63 44.43Q217.75 44.82 218.02 45.12Q218.29 45.41 218.77 45.41Q219.53 45.41 220.08 44.87Q220.63 44.34 221.03 43.53Q221.44 42.72 221.69 41.78Q221.95 40.84 222.12 40.01Q222.27 39.23 222.61 38.88Q222.95 38.53 223.32 38.53Q223.61 38.53 223.93 38.71Q224.24 38.89 224.50 39.18Q224.76 39.48 224.91 39.84Q225.07 40.21 225.07 40.58Q225.07 40.63 225.07 40.70Q225.07 40.77 225.02 40.92Q224.68 42.16 224.13 43.53Q223.58 44.90 222.73 46.04Q221.88 47.19 220.68 47.95Q219.48 48.71 217.87 48.71ZM226.10 32.52Q226.37 32.01 226.62 31.14Q226.88 30.27 227.11 29.22Q227.34 28.17 227.54 27.03Q227.73 25.88 227.88 24.78Q228.03 23.68 228.11 22.72Q228.20 21.75 228.20 21.07Q228.20 18.58 227.83 17.42Q227.47 16.26 226.86 16.26Q226.66 16.26 226.51 16.46Q226.37 16.65 226.27 16.96Q226.17 17.26 226.14 17.61Q226.10 17.97 226.10 18.26L226.10 32.52M233.20 40.06Q233.35 39.33 233.65 39.00Q233.96 38.67 234.31 38.64Q234.67 38.60 235.03 38.81Q235.40 39.01 235.67 39.36Q235.94 39.70 236.07 40.12Q236.21 40.55 236.11 40.97Q235.77 41.97 235.13 43.31Q234.50 44.65 233.52 45.85Q232.54 47.05 231.23 47.88Q229.91 48.71 228.20 48.71Q226.76 48.71 225.66 48.23Q224.56 47.75 223.82 46.89Q223.07 46.02 222.69 44.81Q222.31 43.60 222.31 42.11L222.31 19.36Q222.31 17.97 222.67 16.78Q223.02 15.60 223.65 14.76Q224.27 13.92 225.10 13.44Q225.93 12.96 226.86 12.96Q227.95 12.96 228.71 13.37Q229.47 13.77 229.96 14.43Q230.44 15.09 230.73 15.94Q231.01 16.80 231.13 17.69Q231.25 18.58 231.27 19.45Q231.30 20.31 231.30 21.02Q231.30 22.85 230.96 24.87Q230.62 26.88 230.09 28.83Q229.57 30.79 228.94 32.58Q228.32 34.38 227.75 35.77Q227.17 37.16 226.72 38.04Q226.27 38.92 226.10 39.06L226.10 41.97Q226.10 43.48 226.73 44.45Q227.37 45.41 228.76 45.41Q229.61 45.41 230.36 44.89Q231.10 44.36 231.68 43.57Q232.25 42.77 232.64 41.83Q233.03 40.89 233.20 40.06ZM235.96 23.27Q235.35 23.27 234.80 23.02Q234.25 22.78 233.85 22.36Q233.45 21.95 233.20 21.40Q232.96 20.85 232.96 20.21Q232.96 19.56 233.20 18.99Q233.45 18.43 233.85 18.03Q234.25 17.63 234.80 17.40Q235.35 17.16 235.96 17.16Q236.62 17.16 237.18 17.40Q237.74 17.63 238.15 18.03Q238.55 18.43 238.78 18.99Q239.01 19.56 239.01 20.21Q239.01 20.85 238.78 21.40Q238.55 21.95 238.15 22.36Q237.74 22.78 237.18 23.02Q236.62 23.27 235.96 23.27M237.11 43.12Q237.11 43.29 237.13 43.66Q237.16 44.04 237.28 44.43Q237.40 44.82 237.67 45.12Q237.94 45.41 238.43 45.41Q239.16 45.41 239.71 44.87Q240.26 44.34 240.66 43.53Q241.06 42.72 241.33 41.78Q241.60 40.84 241.77 40.01Q241.92 39.26 242.22 38.92Q242.53 38.57 242.88 38.54Q243.24 38.50 243.59 38.72Q243.95 38.94 244.23 39.29Q244.51 39.65 244.64 40.09Q244.78 40.53 244.68 40.92Q244.34 42.16 243.79 43.53Q243.24 44.90 242.38 46.04Q241.53 47.19 240.33 47.95Q239.14 48.71 237.52 48.71Q236.52 48.71 235.74 48.33Q234.96 47.95 234.42 47.31Q233.89 46.68 233.61 45.83Q233.33 44.97 233.33 44.02L233.33 30.66Q233.33 29.96 233.22 29.64Q233.11 29.32 233.11 29.05Q233.11 28.69 233.50 28.45Q233.89 28.22 234.42 28.22Q235.67 28.22 236.39 28.87Q237.11 29.52 237.11 30.42L237.11 43.12ZM241.97 30.66Q241.97 29.96 241.86 29.64Q241.75 29.32 241.75 29.05Q241.75 28.69 242.14 28.45Q242.53 28.22 243.07 28.22Q244.31 28.22 245.03 28.87Q245.75 29.52 245.75 30.42L245.75 32.67Q246.26 31.62 246.86 30.71Q247.46 29.81 248.16 29.14Q248.85 28.47 249.65 28.09Q250.44 27.71 251.37 27.71Q252.61 27.71 253.42 28.17Q254.22 28.64 254.69 29.37Q255.15 30.10 255.33 31.01Q255.52 31.91 255.52 32.76L255.52 43.12Q255.52 43.29 255.54 43.66Q255.57 44.04 255.69 44.43Q255.81 44.82 256.07 45.12Q256.32 45.41 256.81 45.41Q257.57 45.41 258.12 44.87Q258.67 44.34 259.07 43.53Q259.47 42.72 259.73 41.78Q259.99 40.84 260.16 40.01Q260.30 39.23 260.64 38.88Q260.99 38.53 261.35 38.53Q261.65 38.53 261.96 38.71Q262.28 38.89 262.54 39.18Q262.79 39.48 262.95 39.84Q263.11 40.21 263.11 40.58Q263.11 40.63 263.11 40.70Q263.11 40.77 263.06 40.92Q262.74 42.16 262.19 43.53Q261.65 44.90 260.78 46.04Q259.91 47.19 258.72 47.95Q257.52 48.71 255.91 48.71Q254.91 48.71 254.14 48.33Q253.37 47.95 252.82 47.31Q252.27 46.68 251.99 45.83Q251.71 44.97 251.71 44.02L251.71 33.86Q251.71 33.28 251.68 32.76Q251.66 32.25 251.55 31.86Q251.44 31.47 251.23 31.24Q251.03 31.01 250.66 31.01Q250.12 31.01 249.34 31.74Q248.56 32.47 247.80 33.64Q247.05 34.81 246.47 36.29Q245.90 37.77 245.75 39.26L245.75 46.56Q245.75 46.92 245.74 47.30Q245.73 47.68 245.59 47.99Q245.46 48.29 245.18 48.50Q244.90 48.71 244.36 48.71Q243.99 48.71 243.57 48.62Q243.14 48.54 242.79 48.30Q242.43 48.07 242.20 47.64Q241.97 47.22 241.97 46.51L241.97 30.66ZM263.01 62.16Q263.01 60.25 263.51 58.79Q264.01 57.32 264.87 56.10Q265.72 54.88 266.85 53.82Q267.97 52.76 269.21 51.66L269.21 46.41Q268.46 47.17 267.44 47.69Q266.43 48.22 265.11 48.22Q263.65 48.22 262.54 47.63Q261.43 47.05 260.67 46.03Q259.91 45.02 259.53 43.64Q259.16 42.26 259.16 40.67Q259.16 37.55 260.16 35.06Q261.16 32.57 262.82 30.82Q264.48 29.08 266.61 28.15Q268.75 27.22 271.04 27.22Q272.07 27.22 272.71 27.77Q273.34 28.32 273.34 29.32Q273.34 29.96 273.21 30.21Q273.07 30.47 272.71 30.47Q272.36 30.47 272.00 30.42Q271.63 30.37 271.24 30.37Q269.82 30.37 268.36 30.99Q266.89 31.62 265.71 32.90Q264.53 34.18 263.77 36.15Q263.01 38.11 263.01 40.82Q263.01 42.77 263.77 43.85Q264.53 44.92 265.84 44.92Q266.60 44.92 267.16 44.47Q267.72 44.02 268.14 43.33Q268.55 42.65 268.81 41.83Q269.07 41.02 269.21 40.26L269.21 34.62Q269.21 33.91 269.10 33.59Q268.99 33.28 268.99 33.01Q268.99 32.64 269.38 32.40Q269.78 32.15 270.31 32.15Q271.56 32.15 272.28 32.80Q273.00 33.45 273.00 34.38L273.00 47.97Q274.37 46.46 275.50 44.53Q276.64 42.60 277.39 40.01Q277.64 39.23 277.93 38.88Q278.22 38.53 278.61 38.53Q278.91 38.53 279.21 38.71Q279.52 38.89 279.77 39.18Q280.03 39.48 280.19 39.84Q280.35 40.21 280.35 40.58Q280.35 40.63 280.35 40.77Q280.35 40.92 280.30 41.06Q279.66 43.24 278.82 44.91Q277.98 46.58 277.03 47.90Q276.07 49.22 275.05 50.26Q274.02 51.29 273.00 52.17L273.00 60.82Q273.00 62.79 272.55 64.15Q272.09 65.50 271.36 66.35Q270.63 67.19 269.69 67.55Q268.75 67.92 267.80 67.92Q266.75 67.92 265.87 67.47Q264.99 67.02 264.36 66.24Q263.72 65.45 263.37 64.40Q263.01 63.35 263.01 62.16M267.80 64.77Q268.41 64.77 268.70 64.28Q268.99 63.79 269.10 63.15Q269.21 62.50 269.21 61.84Q269.21 61.18 269.21 60.82L269.21 55.47Q267.99 56.69 267.25 58.23Q266.50 59.77 266.50 62.01Q266.50 63.18 266.85 63.98Q267.19 64.77 267.80 64.77ZM283.86 43.65Q284.89 43.65 285.60 44.35Q286.30 45.04 286.30 46.07Q286.30 46.53 286.11 46.96Q285.91 47.39 285.58 47.71Q285.25 48.02 284.81 48.22Q284.38 48.41 283.86 48.41Q283.37 48.41 282.93 48.22Q282.50 48.02 282.17 47.71Q281.84 47.39 281.64 46.96Q281.45 46.53 281.45 46.07Q281.45 45.56 281.64 45.12Q281.84 44.68 282.17 44.35Q282.50 44.02 282.93 43.84Q283.37 43.65 283.86 43.65M285.82 39.77Q285.82 40.75 285.35 41.19Q284.89 41.63 284.25 41.63Q283.86 41.63 283.45 41.46Q283.03 41.28 282.70 40.98Q282.37 40.67 282.17 40.25Q281.96 39.82 281.96 39.31L281.96 14.67Q281.96 13.96 281.73 13.59Q281.49 13.21 281.49 12.92Q281.49 12.65 281.86 12.48Q282.23 12.30 283.01 12.30Q283.52 12.30 284.02 12.40Q284.52 12.50 284.92 12.73Q285.33 12.96 285.57 13.34Q285.82 13.72 285.82 14.31L285.82 39.77Z"/></g></g></svg>
